<svg id="Flat" height="512" viewBox="0 0 512 512" width="512" xmlns="http://www.w3.org/2000/svg"><path d="m440 208c0-101.62-82.379-184-184-184a184.027 184.027 0 0 0 -80 349.742l59.418 106.077a16 16 0 0 0 13.959 8.181h13.246a16 16 0 0 0 13.959-8.181l59.418-106.077a184.01 184.01 0 0 0 104-165.742z" fill="#eb423f"/><circle cx="256" cy="208" fill="#e9eef2" r="136"/><path d="m200 216v-80h-32v80 32 32h32v-32h112v32h32v-32-16-16z" fill="#3397e8"/><path d="m200 184h128a16 16 0 0 1 16 16v16a0 0 0 0 1 0 0h-144a0 0 0 0 1 0 0v-32a0 0 0 0 1 0 0z" fill="#6ed2f0"/><path d="m200 152h32a16 16 0 0 1 16 16v16a0 0 0 0 1 0 0h-48a0 0 0 0 1 0 0v-32a0 0 0 0 1 0 0z" fill="#2978b8"/></svg>